<svg width="1440" height="1024" viewBox="0 0 1440 1024" fill="none" xmlns="http://www.w3.org/2000/svg">
<rect width="1440" height="1024" fill="white"/>
<g clip-path="url(#clip0)">
<path d="M1410.63 909.831H465.37C465.007 909.831 464.658 909.689 464.401 909.436C464.144 909.183 464 908.84 464 908.483C464 908.125 464.144 907.782 464.401 907.529C464.658 907.276 465.007 907.134 465.37 907.134H1410.63C1410.99 907.134 1411.34 907.276 1411.6 907.529C1411.86 907.782 1412 908.125 1412 908.483C1412 908.84 1411.86 909.183 1411.6 909.436C1411.34 909.689 1410.99 909.831 1410.63 909.831Z" fill="#CCCCCC"/>
<path d="M1317.07 674.68H760.872C758.511 674.68 756.246 675.603 754.576 677.246C752.906 678.89 751.968 681.119 751.968 683.444C751.968 685.768 752.906 687.997 754.576 689.641C756.246 691.284 758.511 692.208 760.872 692.208H776.627V901.874C776.627 904.198 777.565 906.427 779.235 908.071C780.905 909.714 783.17 910.638 785.531 910.638C787.893 910.638 790.158 909.714 791.828 908.071C793.498 906.427 794.436 904.198 794.436 901.874L794.571 692.208H1282.14V901.874C1282.14 904.198 1283.07 906.427 1284.74 908.071C1286.41 909.714 1288.68 910.638 1291.04 910.638C1293.4 910.638 1295.67 909.714 1297.34 908.071C1299.01 906.427 1299.94 904.198 1299.94 901.874V696.829L1302.54 692.208H1317.07C1319.43 692.208 1321.7 691.284 1323.37 689.641C1325.04 687.997 1325.97 685.768 1325.97 683.444C1325.97 681.119 1325.04 678.89 1323.37 677.246C1321.7 675.603 1319.43 674.68 1317.07 674.68V674.68Z" fill="#CCCCCC"/>
<path d="M1069.23 679.266H900.754C897.492 679.263 894.365 677.985 892.058 675.715C889.751 673.445 888.453 670.366 888.45 667.156V575.861C888.453 572.651 889.751 569.572 892.058 567.302C894.365 565.032 897.492 563.754 900.754 563.751H1069.23C1072.49 563.754 1075.62 565.032 1077.93 567.302C1080.24 569.572 1081.53 572.651 1081.54 575.861V667.156C1081.53 670.366 1080.24 673.445 1077.93 675.715C1075.62 677.985 1072.49 679.263 1069.23 679.266V679.266Z" fill="#3F3D56"/>
<path d="M1069.23 573.071H900.755C900.004 573.073 899.283 573.368 898.752 573.891C898.22 574.414 897.921 575.123 897.92 575.863V667.158C897.921 667.898 898.221 668.607 898.752 669.13C899.283 669.653 900.004 669.948 900.755 669.949H1069.23C1069.98 669.948 1070.7 669.653 1071.23 669.13C1071.77 668.607 1072.07 667.898 1072.07 667.158V575.863C1072.07 575.123 1071.77 574.414 1071.23 573.891C1070.7 573.368 1069.98 573.073 1069.23 573.071V573.071Z" fill="white"/>
<path d="M999.362 637.708C999.362 637.708 979.194 633.134 968.101 641.52C957.008 649.906 982.219 668.965 982.219 668.965L999.362 637.708Z" fill="#2F2E41"/>
<path d="M985.981 629.065C996.488 629.065 1005.01 620.682 1005.01 610.341C1005.01 600 996.488 591.617 985.981 591.617C975.474 591.617 966.957 600 966.957 610.341C966.957 620.682 975.474 629.065 985.981 629.065Z" fill="#A0616A"/>
<path d="M971.27 584.056C972.539 581.937 974.378 580.204 976.584 579.049C978.79 577.893 981.278 577.361 983.773 577.509C986.382 577.831 988.928 578.533 991.329 579.591L1003.77 584.366C1006.98 585.601 1010.51 587.115 1011.9 590.224C1013.2 593.111 1012.23 596.444 1011.25 599.449L1006.6 613.732C1006.09 610.499 1005.2 607.334 1003.96 604.297C1002.71 601.239 1000.44 598.69 997.52 597.064C994.29 595.433 990.482 595.467 986.856 595.639C981.719 595.882 976.135 596.525 972.486 600.091C970.549 602.116 969.235 604.64 968.699 607.371C968.17 610.087 967.904 612.846 967.904 615.611C965.798 612.048 964.024 608.304 962.604 604.426C961.435 601.539 960.769 598.478 960.634 595.373C960.512 592.241 961.568 589.174 963.599 586.761C964.631 585.581 965.976 584.709 967.484 584.242C968.992 583.775 970.603 583.731 972.135 584.117L971.27 584.056Z" fill="#2F2E41"/>
<path d="M1031.41 653.944C1031.23 653.312 1030.86 652.746 1030.36 652.316C1029.85 651.887 1029.23 651.614 1028.57 651.531C1028.53 651.501 1028.48 651.474 1028.43 651.45L1000.03 635.785C999.222 635.338 998.267 635.215 997.367 635.443C996.467 635.671 995.69 636.232 995.2 637.009L987.432 649.387L975.733 637.872L975.547 637.689C974.946 637.098 974.154 636.735 973.308 636.662C972.462 636.589 971.617 636.812 970.921 637.291L947.58 653.378C947.539 653.378 947.498 653.392 947.457 653.392C946.34 653.575 945.32 654.128 944.565 654.959C943.81 655.79 943.366 656.849 943.306 657.963L942.703 669.949H1035.91L1031.41 653.944Z" fill="#6C63FF"/>
<path d="M1083.43 668.087H1065.45C1065.45 667.593 1065.25 667.119 1064.89 666.77C1064.54 666.42 1064.06 666.224 1063.55 666.224H1057.87C1057.37 666.224 1056.89 666.42 1056.54 666.77C1056.18 667.119 1055.98 667.593 1055.98 668.087H1050.3C1050.3 667.593 1050.1 667.119 1049.75 666.77C1049.39 666.42 1048.91 666.224 1048.41 666.224H1042.73C1042.23 666.224 1041.75 666.42 1041.39 666.77C1041.04 667.119 1040.84 667.593 1040.84 668.087H1035.16C1035.16 667.593 1034.96 667.119 1034.6 666.77C1034.25 666.42 1033.77 666.224 1033.27 666.224H1027.59C1027.08 666.224 1026.6 666.42 1026.25 666.77C1025.89 667.119 1025.69 667.593 1025.69 668.087H1020.01C1020.01 667.593 1019.81 667.119 1019.46 666.77C1019.1 666.42 1018.62 666.224 1018.12 666.224H1012.44C1011.94 666.224 1011.46 666.42 1011.1 666.77C1010.75 667.119 1010.55 667.593 1010.55 668.087H1004.87C1004.87 667.593 1004.67 667.119 1004.32 666.77C1003.96 666.42 1003.48 666.224 1002.98 666.224H997.298C996.796 666.224 996.314 666.42 995.959 666.77C995.604 667.119 995.405 667.593 995.405 668.087H989.726C989.726 667.593 989.526 667.119 989.171 666.77C988.816 666.42 988.335 666.224 987.833 666.224H982.154C981.652 666.224 981.17 666.42 980.815 666.77C980.46 667.119 980.261 667.593 980.261 668.087H974.582C974.582 667.593 974.382 667.119 974.027 666.77C973.672 666.42 973.191 666.224 972.689 666.224H967.01C966.508 666.224 966.026 666.42 965.671 666.77C965.316 667.119 965.117 667.593 965.117 668.087H959.438C959.438 667.593 959.238 667.119 958.883 666.77C958.528 666.42 958.047 666.224 957.545 666.224H951.866C951.364 666.224 950.882 666.42 950.527 666.77C950.172 667.119 949.973 667.593 949.973 668.087H944.294C944.294 667.593 944.094 667.119 943.739 666.77C943.384 666.42 942.903 666.224 942.401 666.224H936.722C936.219 666.224 935.738 666.42 935.383 666.77C935.028 667.119 934.829 667.593 934.829 668.087H929.149C929.149 667.593 928.95 667.119 928.595 666.77C928.24 666.42 927.759 666.224 927.257 666.224H921.577C921.075 666.224 920.594 666.42 920.239 666.77C919.884 667.119 919.684 667.593 919.684 668.087H914.005C914.005 667.593 913.806 667.119 913.451 666.77C913.096 666.42 912.615 666.224 912.112 666.224H906.433C905.931 666.224 905.45 666.42 905.095 666.77C904.74 667.119 904.54 667.593 904.54 668.087H886.557C885.052 668.09 883.61 668.679 882.547 669.727C881.484 670.775 880.887 672.196 880.887 673.677C880.887 675.158 881.484 676.578 882.547 677.626C883.61 678.674 885.052 679.264 886.557 679.266H1083.43C1084.94 679.266 1086.38 678.677 1087.45 677.629C1088.51 676.581 1089.11 675.159 1089.11 673.677C1089.11 672.194 1088.51 670.773 1087.45 669.724C1086.38 668.676 1084.94 668.087 1083.43 668.087V668.087Z" fill="#3F3D56"/>
<path d="M857.282 635.628V672.741H762.807C760.276 672.828 757.753 672.412 755.389 671.519C753.024 670.625 750.867 669.272 749.045 667.541C747.223 665.809 745.775 663.734 744.785 661.439C743.796 659.145 743.286 656.677 743.286 654.185C743.286 651.692 743.796 649.225 744.785 646.93C745.775 644.635 747.223 642.56 749.045 640.829C750.867 639.097 753.024 637.744 755.389 636.85C757.753 635.957 760.276 635.541 762.807 635.628H857.282Z" fill="#F2F2F2"/>
<path d="M859.602 672.456C859.602 672.834 859.449 673.198 859.177 673.465C858.905 673.733 858.537 673.883 858.152 673.883H761.125C755.855 673.883 750.801 671.823 747.075 668.156C743.349 664.488 741.255 659.514 741.255 654.327C741.255 649.141 743.349 644.167 747.075 640.499C750.801 636.832 755.855 634.771 761.125 634.771H858.152C858.537 634.771 858.905 634.922 859.177 635.189C859.449 635.457 859.602 635.82 859.602 636.199C859.602 636.577 859.449 636.94 859.177 637.208C858.905 637.476 858.537 637.626 858.152 637.626H761.125C756.627 637.63 752.315 639.391 749.136 642.523C745.957 645.655 744.171 649.9 744.171 654.327C744.171 658.754 745.957 663 749.136 666.132C752.315 669.263 756.627 671.025 761.125 671.029H858.152C858.537 671.029 858.905 671.179 859.177 671.447C859.449 671.714 859.602 672.077 859.602 672.456V672.456Z" fill="#6C63FF"/>
<path d="M857.282 644.192H755.758C755.72 644.193 755.682 644.185 755.647 644.171C755.611 644.157 755.579 644.136 755.552 644.109C755.525 644.083 755.503 644.051 755.489 644.017C755.474 643.982 755.466 643.945 755.466 643.907C755.466 643.869 755.474 643.832 755.489 643.797C755.503 643.762 755.525 643.731 755.552 643.704C755.579 643.678 755.611 643.657 755.647 643.643C755.682 643.628 755.72 643.621 755.758 643.621H857.282C857.358 643.622 857.432 643.652 857.486 643.706C857.54 643.759 857.57 643.831 857.57 643.907C857.57 643.982 857.54 644.055 857.486 644.108C857.432 644.162 857.358 644.192 857.282 644.192V644.192Z" fill="#CCCCCC"/>
<path d="M857.282 651.044H755.758C755.72 651.044 755.682 651.037 755.647 651.023C755.611 651.009 755.579 650.988 755.552 650.961C755.525 650.935 755.503 650.903 755.489 650.868C755.474 650.834 755.466 650.796 755.466 650.759C755.466 650.721 755.474 650.684 755.489 650.649C755.503 650.614 755.525 650.583 755.552 650.556C755.579 650.53 755.611 650.509 755.647 650.494C755.682 650.48 755.72 650.473 755.758 650.473H857.282C857.358 650.474 857.432 650.504 857.486 650.557C857.54 650.611 857.57 650.683 857.57 650.759C857.57 650.834 857.54 650.906 857.486 650.96C857.432 651.013 857.358 651.044 857.282 651.044V651.044Z" fill="#CCCCCC"/>
<path d="M857.282 657.896H755.758C755.72 657.896 755.682 657.889 755.647 657.875C755.611 657.861 755.579 657.84 755.552 657.813C755.525 657.787 755.503 657.755 755.489 657.72C755.474 657.685 755.466 657.648 755.466 657.61C755.466 657.573 755.474 657.536 755.489 657.501C755.503 657.466 755.525 657.434 755.552 657.408C755.579 657.381 755.611 657.36 755.647 657.346C755.682 657.332 755.72 657.325 755.758 657.325H857.282C857.358 657.325 857.432 657.356 857.486 657.409C857.54 657.463 857.57 657.535 857.57 657.61C857.57 657.686 857.54 657.758 857.486 657.812C857.432 657.865 857.358 657.895 857.282 657.896V657.896Z" fill="#CCCCCC"/>
<path d="M857.282 664.748H755.758C755.72 664.748 755.682 664.741 755.647 664.726C755.611 664.712 755.579 664.691 755.552 664.665C755.525 664.638 755.503 664.607 755.489 664.572C755.474 664.537 755.466 664.5 755.466 664.462C755.466 664.425 755.474 664.387 755.489 664.352C755.503 664.318 755.525 664.286 755.552 664.26C755.579 664.233 755.611 664.212 755.647 664.198C755.682 664.184 755.72 664.176 755.758 664.177H857.282C857.358 664.177 857.432 664.208 857.486 664.261C857.54 664.315 857.57 664.387 857.57 664.462C857.57 664.538 857.54 664.61 857.486 664.663C857.432 664.717 857.358 664.747 857.282 664.748Z" fill="#CCCCCC"/>
<path d="M839.472 596.526V633.64H744.998C742.467 633.727 739.944 633.311 737.58 632.417C735.215 631.524 733.058 630.171 731.236 628.439C729.414 626.707 727.965 624.632 726.976 622.338C725.986 620.043 725.476 617.576 725.476 615.083C725.476 612.59 725.986 610.123 726.976 607.828C727.965 605.534 729.414 603.459 731.236 601.727C733.058 599.995 735.215 598.642 737.58 597.749C739.944 596.855 742.467 596.439 744.998 596.526H839.472Z" fill="#F2F2F2"/>
<path d="M841.793 633.354C841.793 633.733 841.64 634.096 841.368 634.364C841.096 634.631 840.727 634.782 840.343 634.782H743.315C740.706 634.782 738.122 634.276 735.712 633.293C733.301 632.31 731.111 630.87 729.266 629.054C727.421 627.238 725.957 625.082 724.958 622.709C723.96 620.337 723.446 617.794 723.446 615.226C723.446 612.658 723.96 610.115 724.958 607.742C725.957 605.369 727.421 603.213 729.266 601.397C731.111 599.581 733.301 598.141 735.712 597.158C738.122 596.175 740.706 595.67 743.315 595.67H840.343C840.727 595.67 841.096 595.82 841.368 596.088C841.64 596.355 841.793 596.718 841.793 597.097C841.793 597.476 841.64 597.839 841.368 598.106C841.096 598.374 840.727 598.524 840.343 598.524H743.315C738.818 598.528 734.506 600.29 731.327 603.421C728.148 606.553 726.362 610.799 726.362 615.226C726.362 619.653 728.148 623.898 731.327 627.03C734.506 630.162 738.818 631.923 743.315 631.927H840.343C840.727 631.927 841.096 632.077 841.368 632.345C841.64 632.613 841.793 632.976 841.793 633.354V633.354Z" fill="#3F3D56"/>
<path d="M839.472 605.091H737.949C737.911 605.091 737.873 605.084 737.838 605.07C737.802 605.055 737.77 605.034 737.743 605.008C737.716 604.981 737.694 604.95 737.679 604.915C737.665 604.88 737.657 604.843 737.657 604.805C737.657 604.768 737.665 604.73 737.679 604.695C737.694 604.661 737.716 604.629 737.743 604.603C737.77 604.576 737.802 604.555 737.838 604.541C737.873 604.527 737.911 604.519 737.949 604.52H839.472C839.549 604.52 839.622 604.551 839.676 604.604C839.73 604.658 839.761 604.73 839.761 604.805C839.761 604.881 839.73 604.953 839.676 605.006C839.622 605.06 839.549 605.09 839.472 605.091V605.091Z" fill="#CCCCCC"/>
<path d="M839.472 611.943H737.949C737.911 611.943 737.873 611.936 737.838 611.921C737.802 611.907 737.77 611.886 737.743 611.86C737.716 611.833 737.694 611.802 737.679 611.767C737.665 611.732 737.657 611.695 737.657 611.657C737.657 611.619 737.665 611.582 737.679 611.547C737.694 611.513 737.716 611.481 737.743 611.454C737.77 611.428 737.802 611.407 737.838 611.393C737.873 611.378 737.911 611.371 737.949 611.372H839.472C839.549 611.372 839.622 611.402 839.676 611.456C839.73 611.509 839.761 611.582 839.761 611.657C839.761 611.732 839.73 611.805 839.676 611.858C839.622 611.912 839.549 611.942 839.472 611.943V611.943Z" fill="#CCCCCC"/>
<path d="M839.472 618.794H737.949C737.911 618.795 737.873 618.787 737.838 618.773C737.802 618.759 737.77 618.738 737.743 618.711C737.716 618.685 737.694 618.653 737.679 618.619C737.665 618.584 737.657 618.546 737.657 618.509C737.657 618.471 737.665 618.434 737.679 618.399C737.694 618.364 737.716 618.333 737.743 618.306C737.77 618.28 737.802 618.259 737.838 618.245C737.873 618.23 737.911 618.223 737.949 618.223H839.472C839.549 618.224 839.622 618.254 839.676 618.308C839.73 618.361 839.761 618.433 839.761 618.509C839.761 618.584 839.73 618.657 839.676 618.71C839.622 618.763 839.549 618.794 839.472 618.794V618.794Z" fill="#CCCCCC"/>
<path d="M839.472 625.646H737.949C737.911 625.646 737.873 625.639 737.838 625.625C737.802 625.611 737.77 625.59 737.743 625.563C737.716 625.537 737.694 625.505 737.679 625.47C737.665 625.436 737.657 625.398 737.657 625.361C737.657 625.323 737.665 625.286 737.679 625.251C737.694 625.216 737.716 625.185 737.743 625.158C737.77 625.131 737.802 625.11 737.838 625.096C737.873 625.082 737.911 625.075 737.949 625.075H839.472C839.549 625.076 839.622 625.106 839.676 625.159C839.73 625.213 839.761 625.285 839.761 625.361C839.761 625.436 839.73 625.508 839.676 625.562C839.622 625.615 839.549 625.646 839.472 625.646Z" fill="#CCCCCC"/>
<path d="M949.375 804.661V772.301C949.375 770.871 948.797 769.499 947.77 768.487C946.742 767.476 945.348 766.908 943.895 766.908H819.23C817.777 766.908 816.383 767.476 815.356 768.487C814.328 769.499 813.751 770.871 813.751 772.301V804.661H949.375Z" fill="#CCCCCC"/>
<path d="M949.375 816.796H813.751V858.594H949.375V816.796Z" fill="#CCCCCC"/>
<path d="M813.751 870.729V903.089C813.751 904.52 814.328 905.891 815.356 906.903C816.383 907.914 817.777 908.483 819.23 908.483H943.895C945.348 908.483 946.742 907.914 947.77 906.903C948.797 905.891 949.375 904.52 949.375 903.089V870.729H813.751Z" fill="#CCCCCC"/>
<path d="M880.878 791.178C883.148 791.178 884.988 789.367 884.988 787.133C884.988 784.899 883.148 783.088 880.878 783.088C878.608 783.088 876.768 784.899 876.768 787.133C876.768 789.367 878.608 791.178 880.878 791.178Z" fill="white"/>
<path d="M880.878 845.111C883.148 845.111 884.988 843.3 884.988 841.066C884.988 838.832 883.148 837.021 880.878 837.021C878.608 837.021 876.768 838.832 876.768 841.066C876.768 843.3 878.608 845.111 880.878 845.111Z" fill="white"/>
<path d="M881.098 897.902C883.368 897.902 885.208 896.091 885.208 893.857C885.208 891.623 883.368 889.812 881.098 889.812C878.828 889.812 876.988 891.623 876.988 893.857C876.988 896.091 878.828 897.902 881.098 897.902Z" fill="white"/>
<path d="M933.998 730.011V767.125H839.524C836.993 767.212 834.47 766.796 832.106 765.902C829.741 765.009 827.584 763.656 825.762 761.924C823.94 760.192 822.491 758.117 821.502 755.822C820.512 753.528 820.002 751.061 820.002 748.568C820.002 746.075 820.512 743.608 821.502 741.313C822.491 739.019 823.94 736.944 825.762 735.212C827.584 733.48 829.741 732.127 832.106 731.234C834.47 730.34 836.993 729.924 839.524 730.011H933.998Z" fill="#F2F2F2"/>
<path d="M936.319 766.839C936.319 767.218 936.166 767.581 935.894 767.848C935.622 768.116 935.253 768.267 934.869 768.267H837.842C835.231 768.269 832.645 767.765 830.233 766.783C827.82 765.801 825.628 764.361 823.781 762.545C821.934 760.728 820.469 758.572 819.469 756.198C818.47 753.824 817.955 751.28 817.955 748.711C817.955 746.141 818.47 743.597 819.469 741.223C820.469 738.849 821.934 736.693 823.781 734.877C825.628 733.06 827.82 731.62 830.233 730.638C832.645 729.657 835.231 729.152 837.842 729.154H934.869C935.253 729.154 935.622 729.305 935.894 729.573C936.166 729.84 936.319 730.203 936.319 730.582C936.319 730.96 936.166 731.324 935.894 731.591C935.622 731.859 935.253 732.009 934.869 732.009H837.842C833.344 732.013 829.032 733.775 825.853 736.906C822.674 740.038 820.888 744.284 820.888 748.711C820.888 753.137 822.674 757.383 825.853 760.515C829.032 763.646 833.344 765.408 837.842 765.412H934.869C935.253 765.412 935.622 765.562 935.894 765.83C936.166 766.098 936.319 766.461 936.319 766.839V766.839Z" fill="#3F3D56"/>
<path d="M933.998 738.576H832.475C832.437 738.576 832.399 738.569 832.364 738.554C832.328 738.54 832.296 738.519 832.269 738.493C832.242 738.466 832.22 738.435 832.205 738.4C832.191 738.365 832.183 738.328 832.183 738.29C832.183 738.252 832.191 738.215 832.205 738.18C832.22 738.146 832.242 738.114 832.269 738.088C832.296 738.061 832.328 738.04 832.364 738.026C832.399 738.012 832.437 738.004 832.475 738.005H933.998C934.075 738.005 934.148 738.036 934.202 738.089C934.256 738.142 934.287 738.215 934.287 738.29C934.287 738.365 934.256 738.438 934.202 738.491C934.148 738.545 934.075 738.575 933.998 738.576V738.576Z" fill="#CCCCCC"/>
<path d="M933.998 745.427H832.475C832.437 745.428 832.399 745.421 832.364 745.406C832.328 745.392 832.296 745.371 832.269 745.344C832.242 745.318 832.22 745.286 832.205 745.252C832.191 745.217 832.183 745.18 832.183 745.142C832.183 745.104 832.191 745.067 832.205 745.032C832.22 744.998 832.242 744.966 832.269 744.939C832.296 744.913 832.328 744.892 832.364 744.878C832.399 744.863 832.437 744.856 832.475 744.856H933.998C934.075 744.857 934.148 744.887 934.202 744.941C934.256 744.994 934.287 745.067 934.287 745.142C934.287 745.217 934.256 745.29 934.202 745.343C934.148 745.397 934.075 745.427 933.998 745.427V745.427Z" fill="#CCCCCC"/>
<path d="M933.998 752.279H832.475C832.437 752.279 832.399 752.272 832.364 752.258C832.328 752.244 832.296 752.223 832.269 752.196C832.242 752.17 832.22 752.138 832.205 752.103C832.191 752.069 832.183 752.031 832.183 751.994C832.183 751.956 832.191 751.919 832.205 751.884C832.22 751.849 832.242 751.818 832.269 751.791C832.296 751.765 832.328 751.744 832.364 751.729C832.399 751.715 832.437 751.708 832.475 751.708H933.998C934.075 751.709 934.148 751.739 934.202 751.793C934.256 751.846 934.287 751.918 934.287 751.994C934.287 752.069 934.256 752.141 934.202 752.195C934.148 752.248 934.075 752.279 933.998 752.279V752.279Z" fill="#CCCCCC"/>
<path d="M933.998 759.131H832.475C832.437 759.131 832.399 759.124 832.364 759.11C832.328 759.096 832.296 759.075 832.269 759.048C832.242 759.022 832.22 758.99 832.205 758.955C832.191 758.92 832.183 758.883 832.183 758.845C832.183 758.808 832.191 758.77 832.205 758.736C832.22 758.701 832.242 758.669 832.269 758.643C832.296 758.616 832.328 758.595 832.364 758.581C832.399 758.567 832.437 758.56 832.475 758.56H933.998C934.075 758.56 934.148 758.591 934.202 758.644C934.256 758.698 934.287 758.77 934.287 758.845C934.287 758.921 934.256 758.993 934.202 759.047C934.148 759.1 934.075 759.13 933.998 759.131V759.131Z" fill="#CCCCCC"/>
<path d="M806.637 487.774V251.141C806.64 248.453 807.726 245.875 809.658 243.974C811.59 242.073 814.209 241.003 816.941 241H1006.99C1009.72 241.003 1012.34 242.073 1014.27 243.974C1016.2 245.875 1017.29 248.453 1017.29 251.141V487.774C1017.29 490.462 1016.2 493.04 1014.27 494.941C1012.34 496.843 1009.72 497.912 1006.99 497.915H816.941C814.209 497.912 811.59 496.843 809.658 494.941C807.726 493.04 806.64 490.462 806.637 487.774V487.774ZM816.941 243.254C814.816 243.256 812.779 244.088 811.276 245.567C809.774 247.045 808.929 249.05 808.926 251.141V487.774C808.929 489.865 809.774 491.87 811.276 493.349C812.779 494.827 814.816 495.659 816.941 495.661H1006.99C1009.12 495.659 1011.15 494.827 1012.65 493.349C1014.16 491.87 1015 489.865 1015 487.774V251.141C1015 249.05 1014.16 247.045 1012.65 245.567C1011.15 244.088 1009.12 243.256 1006.99 243.254H816.941Z" fill="#E6E6E6"/>
<path d="M922.623 349.673V301.084C922.625 299.74 923.168 298.451 924.134 297.501C925.1 296.55 926.409 296.015 927.775 296.014H969.609C970.975 296.015 972.284 296.55 973.25 297.501C974.216 298.451 974.759 299.74 974.761 301.084V349.673C974.759 351.017 974.216 352.306 973.25 353.256C972.284 354.207 970.975 354.742 969.609 354.743H927.775C926.409 354.742 925.1 354.207 924.134 353.256C923.168 352.306 922.625 351.017 922.623 349.673V349.673Z" fill="#6C63FF"/>
<path d="M841.337 372.209V323.621C841.338 322.277 841.881 320.988 842.847 320.037C843.813 319.086 845.123 318.552 846.489 318.55H888.322C889.688 318.552 890.998 319.086 891.964 320.037C892.93 320.988 893.473 322.277 893.474 323.621V372.209C893.473 373.553 892.93 374.842 891.964 375.793C890.998 376.744 889.688 377.278 888.322 377.28H846.489C845.123 377.278 843.813 376.743 842.847 375.793C841.881 374.842 841.338 373.553 841.337 372.209V372.209Z" fill="#CCCCCC"/>
<path d="M906.595 440.945V392.357C906.596 391.013 907.14 389.724 908.105 388.773C909.071 387.822 910.381 387.288 911.747 387.286H953.581C954.947 387.288 956.256 387.822 957.222 388.773C958.188 389.724 958.731 391.013 958.733 392.357V440.945C958.731 442.289 958.188 443.578 957.222 444.529C956.256 445.479 954.947 446.014 953.581 446.016H911.747C910.381 446.014 909.071 445.479 908.105 444.529C907.14 443.578 906.596 442.289 906.595 440.945V440.945Z" fill="#FF6584"/>
<path d="M1156.59 663.086H1113.55C1113.14 663.086 1112.74 663.178 1112.37 663.356L1101.51 668.709C1101.15 668.858 1100.84 669.108 1100.63 669.427C1100.42 669.746 1100.3 670.12 1100.3 670.502C1100.3 670.884 1100.42 671.258 1100.63 671.577C1100.84 671.896 1101.15 672.146 1101.51 672.295L1112.37 677.648C1112.74 677.826 1113.14 677.918 1113.55 677.918H1156.59C1157.19 677.952 1157.77 677.754 1158.21 677.368C1158.66 676.982 1158.93 676.438 1158.98 675.855V665.149C1158.93 664.566 1158.66 664.022 1158.21 663.636C1157.77 663.25 1157.19 663.052 1156.59 663.086Z" fill="#3F3D56"/>
<path d="M1158.98 665.149V675.855C1158.93 676.438 1158.66 676.982 1158.21 677.368C1157.77 677.754 1157.19 677.952 1156.59 677.918H1148.02V663.086H1156.59C1157.19 663.052 1157.77 663.25 1158.21 663.636C1158.66 664.022 1158.93 664.566 1158.98 665.149V665.149Z" fill="#6C63FF"/>
<path d="M1156.27 582.995C1158.22 582.167 1160.32 581.754 1162.45 581.782C1164.57 581.811 1166.66 582.28 1168.59 583.161C1170.51 584.041 1172.23 585.312 1173.62 586.89C1175.01 588.468 1176.05 590.318 1176.67 592.318C1176.86 592.952 1177.01 593.599 1177.11 594.253L1237.3 623.631L1251.23 614.545L1268.56 634.184L1247.29 651.186C1244.73 653.215 1241.58 654.378 1238.3 654.502C1235.01 654.627 1231.78 653.706 1229.07 651.878L1168 610.311C1167.54 610.501 1167.08 610.667 1166.61 610.81C1164.58 611.415 1162.44 611.591 1160.33 611.325C1158.22 611.06 1156.2 610.359 1154.38 609.269C1152.57 608.179 1151.01 606.725 1149.81 605.001C1148.61 603.278 1147.79 601.324 1147.41 599.267C1147.3 598.67 1147.23 598.067 1147.19 597.461C1147.02 594.426 1147.8 591.413 1149.42 588.827C1151.05 586.24 1153.44 584.205 1156.27 582.995V582.995Z" fill="#FFB8B8"/>
<path d="M1281.64 763.872H1215.87C1215.87 765.733 1148.08 767.243 1148.08 767.243C1147.02 768.031 1146.05 768.936 1145.19 769.94C1142.62 772.962 1141.21 776.782 1141.22 780.726V783.423C1141.22 787.892 1143.03 792.178 1146.24 795.339C1149.45 798.499 1153.8 800.275 1158.34 800.277H1281.64C1286.18 800.273 1290.53 798.496 1293.74 795.336C1296.95 792.176 1298.76 787.892 1298.76 783.423V780.726C1298.76 776.258 1296.95 771.975 1293.74 768.815C1290.53 765.656 1286.18 763.878 1281.64 763.872V763.872Z" fill="#3F3D56"/>
<path d="M1210.09 912.867H1227.9V799.608H1210.09V912.867Z" fill="#3F3D56"/>
<path d="M1159.41 912.252C1159.41 914.146 1186.39 912.984 1219.68 912.984C1252.97 912.984 1279.96 914.146 1279.96 912.252C1279.96 910.358 1252.97 895.339 1219.68 895.339C1186.39 895.339 1159.41 910.358 1159.41 912.252Z" fill="#3F3D56"/>
<path d="M1175.48 898.977L1158.69 898.975L1150.7 856.103L1175.49 856.104L1175.48 898.977Z" fill="#FFB8B8"/>
<path d="M1179.77 915L1125.61 914.998V914.324C1125.61 911.599 1126.16 908.902 1127.22 906.385C1128.28 903.868 1129.83 901.581 1131.79 899.654C1133.74 897.728 1136.07 896.2 1138.62 895.157C1141.18 894.115 1143.92 893.578 1146.69 893.578H1146.69L1179.77 893.579L1179.77 915Z" fill="#2F2E41"/>
<path d="M1150.36 872.39L1116.88 798.491C1114.09 792.263 1113.78 785.227 1116.02 778.784C1118.25 772.341 1122.88 766.965 1128.96 763.726L1201.59 725.396L1234.73 722.621L1265.3 719.887L1265.52 720.254C1265.8 720.723 1272.37 731.896 1267.93 744.149C1264.56 753.442 1255.79 760.701 1241.88 765.725C1209.39 777.449 1171.86 787.469 1157.23 791.232C1156.59 791.395 1155.98 791.691 1155.46 792.1C1154.94 792.508 1154.51 793.022 1154.2 793.605C1153.9 794.182 1153.71 794.815 1153.67 795.464C1153.62 796.114 1153.71 796.766 1153.93 797.379L1185.04 866.164C1185.37 867.036 1185.48 867.97 1185.38 868.894C1185.28 869.818 1184.97 870.707 1184.46 871.492C1183.96 872.278 1183.28 872.939 1182.47 873.424C1181.67 873.91 1180.76 874.207 1179.82 874.293L1156.58 875.959C1156.38 875.977 1156.18 875.986 1155.99 875.986C1154.8 875.986 1153.63 875.646 1152.64 875.008C1151.64 874.37 1150.85 873.461 1150.36 872.39V872.39Z" fill="#2F2E41"/>
<path d="M1183.7 898.977L1166.91 898.975L1158.92 856.103L1183.71 856.104L1183.7 898.977Z" fill="#FFB8B8"/>
<path d="M1187.99 915L1133.83 914.998V914.324C1133.83 911.599 1134.38 908.902 1135.44 906.385C1136.5 903.868 1138.05 901.581 1140.01 899.654C1141.96 897.728 1144.29 896.2 1146.84 895.157C1149.4 894.115 1152.14 893.578 1154.91 893.578H1154.91L1187.99 893.579L1187.99 915Z" fill="#2F2E41"/>
<path d="M1159.95 876.435L1126.47 802.536C1123.68 796.308 1123.37 789.272 1125.61 782.829C1127.84 776.386 1132.47 771.01 1138.55 767.771L1211.18 729.441L1244.32 726.666L1274.89 723.932L1275.11 724.299C1275.39 724.768 1281.96 735.941 1277.52 748.194C1274.15 757.487 1265.38 764.746 1251.46 769.77C1218.98 781.494 1181.45 791.514 1166.82 795.277C1166.17 795.44 1165.57 795.736 1165.05 796.145C1164.53 796.553 1164.1 797.067 1163.79 797.65C1163.48 798.227 1163.3 798.86 1163.26 799.509C1163.21 800.159 1163.3 800.811 1163.52 801.424L1194.63 870.209C1194.95 871.081 1195.07 872.015 1194.97 872.939C1194.87 873.863 1194.56 874.752 1194.05 875.537C1193.55 876.323 1192.87 876.984 1192.06 877.469C1191.26 877.955 1190.35 878.252 1189.41 878.338L1166.17 880.004C1165.97 880.022 1165.77 880.031 1165.58 880.031C1164.39 880.031 1163.22 879.691 1162.23 879.053C1161.23 878.415 1160.44 877.506 1159.95 876.435V876.435Z" fill="#2F2E41"/>
<path d="M1143.26 650.683C1129.19 632.263 1118.07 611.832 1110.28 590.1C1109.83 588.8 1109.86 587.385 1110.37 586.106C1110.88 584.827 1111.84 583.768 1113.07 583.117L1161.21 557.725C1161.99 557.311 1162.86 557.078 1163.74 557.043C1164.63 557.007 1165.51 557.171 1166.32 557.521C1167.14 557.875 1167.88 558.408 1168.46 559.082C1169.04 559.756 1169.46 560.552 1169.69 561.41C1175.29 582.352 1185.83 601.701 1200.44 617.893C1201.04 618.552 1201.48 619.337 1201.73 620.189C1201.97 621.041 1202.02 621.937 1201.86 622.809C1201.71 623.668 1201.36 624.48 1200.84 625.185C1200.32 625.891 1199.64 626.47 1198.86 626.879L1150.71 652.27C1149.48 652.917 1148.06 653.112 1146.69 652.821C1145.33 652.53 1144.11 651.773 1143.26 650.683V650.683Z" fill="#CCCCCC"/>
<path d="M1146.55 648.253C1146.81 648.571 1147.17 648.791 1147.58 648.873C1147.98 648.955 1148.41 648.896 1148.77 648.705L1196.92 623.313C1197.15 623.193 1197.36 623.022 1197.51 622.812C1197.67 622.602 1197.77 622.359 1197.81 622.104C1197.86 621.833 1197.85 621.556 1197.77 621.292C1197.7 621.028 1197.56 620.785 1197.37 620.583C1182.33 603.914 1171.48 583.995 1165.71 562.436C1165.65 562.17 1165.52 561.922 1165.34 561.713C1165.16 561.503 1164.93 561.338 1164.67 561.229C1164.43 561.123 1164.17 561.073 1163.91 561.084C1163.64 561.095 1163.39 561.166 1163.15 561.291L1115.01 586.682C1114.64 586.876 1114.36 587.189 1114.2 587.568C1114.05 587.946 1114.03 588.366 1114.16 588.755C1121.81 610.098 1132.73 630.163 1146.55 648.253V648.253Z" fill="white"/>
<path d="M1303.22 643.91L1265.51 658.013L1256.3 632.844C1255.08 629.502 1255.1 625.842 1256.35 622.511C1257.61 619.18 1260.02 616.393 1263.16 614.642V614.642C1266.33 612.87 1270.05 612.275 1273.63 612.964C1277.21 613.652 1280.43 615.579 1282.69 618.396L1303.22 643.91Z" fill="#6C63FF"/>
<path d="M1207.31 743.633C1206.51 743.08 1205.85 742.368 1205.36 741.543C1204.86 740.718 1204.56 739.799 1204.45 738.848C1199.62 694.474 1202.99 659.749 1214.74 632.687C1216.8 628.019 1219.92 623.874 1223.85 620.563C1227.78 617.251 1232.43 614.86 1237.43 613.568L1267.91 612.054L1268.07 612.129C1274.95 615.444 1280.56 620.854 1284.07 627.554C1287.57 634.255 1288.8 641.89 1287.55 649.327C1277.75 674.761 1269.54 701.242 1275.8 722.604C1276.06 723.497 1276.14 724.433 1276.02 725.356C1275.91 726.279 1275.61 727.17 1275.13 727.975C1274.68 728.753 1274.06 729.431 1273.33 729.966C1272.59 730.502 1271.76 730.884 1270.87 731.088L1212.81 744.681C1211.87 744.901 1210.89 744.921 1209.94 744.741C1208.99 744.56 1208.1 744.182 1207.31 743.633Z" fill="#6C63FF"/>
<path d="M1257.74 600.849C1276.32 600.849 1291.39 586.022 1291.39 567.732C1291.39 549.443 1276.32 534.616 1257.74 534.616C1239.16 534.616 1224.09 549.443 1224.09 567.732C1224.09 586.022 1239.16 600.849 1257.74 600.849Z" fill="#FFB8B8"/>
<path d="M1164.37 593.961L1138.15 605.354C1137.15 605.786 1136.02 605.811 1135.01 605.424C1133.99 605.036 1133.17 604.268 1132.73 603.287L1132.08 601.841C1131.64 600.86 1131.62 599.747 1132.01 598.747C1132.41 597.747 1133.19 596.941 1134.18 596.507L1160.41 585.114C1161.4 584.682 1162.53 584.657 1163.55 585.045C1164.57 585.432 1165.38 586.201 1165.83 587.181L1166.47 588.627C1166.91 589.609 1166.94 590.722 1166.54 591.722C1166.15 592.722 1165.37 593.527 1164.37 593.961V593.961Z" fill="#CCCCCC"/>
<path d="M1173.96 611.49L1147.74 622.883C1146.74 623.315 1145.61 623.34 1144.6 622.952C1143.58 622.565 1142.76 621.796 1142.32 620.816L1141.67 619.369C1141.23 618.388 1141.21 617.275 1141.6 616.275C1142 615.275 1142.78 614.47 1143.77 614.035L1170 602.643C1170.99 602.211 1172.12 602.186 1173.14 602.573C1174.16 602.961 1174.97 603.729 1175.42 604.71L1176.06 606.156C1176.5 607.137 1176.53 608.25 1176.13 609.25C1175.74 610.25 1174.96 611.056 1173.96 611.49V611.49Z" fill="#CCCCCC"/>
<path d="M1194.19 679.954L1135.72 634.561C1135.26 634.722 1134.79 634.86 1134.31 634.973C1132.24 635.448 1130.1 635.491 1128.02 635.098C1125.94 634.705 1123.96 633.886 1122.23 632.693C1120.48 631.499 1119 629.951 1117.91 628.153C1116.82 626.355 1116.13 624.348 1115.89 622.266C1115.5 618.937 1116.26 615.576 1118.05 612.728C1119.84 609.879 1122.56 607.71 1125.76 606.573C1127.76 605.868 1129.89 605.586 1132.01 605.746C1134.12 605.906 1136.18 606.504 1138.05 607.502C1139.91 608.5 1141.55 609.874 1142.83 611.535C1144.12 613.196 1145.04 615.106 1145.53 617.141C1145.68 617.786 1145.78 618.44 1145.84 619.099L1204.04 652.143L1218.52 643.936L1234.56 664.609L1212.08 680.383C1209.44 682.215 1206.28 683.162 1203.06 683.085C1199.84 683.008 1196.72 681.91 1194.19 679.954V679.954Z" fill="#FFB8B8"/>
<path d="M1241.7 671.047L1208.34 648.722L1224.02 626.87C1226.1 623.968 1229.16 621.884 1232.65 620.986C1236.14 620.088 1239.84 620.434 1243.1 621.962V621.962C1246.39 623.508 1249.02 626.163 1250.5 629.447C1251.98 632.732 1252.22 636.429 1251.17 639.871L1241.7 671.047Z" fill="#6C63FF"/>
<path d="M1245.4 562.8C1236.76 568.625 1225.4 574.614 1216.57 568.41C1210.77 564.336 1208.94 556.793 1211.29 550.174C1215.52 538.27 1227.14 533.029 1238.25 529.012C1252.7 523.79 1268.43 519.636 1283.34 523.376C1298.25 527.115 1311.43 541.326 1308.74 556.238C1306.57 568.231 1295.08 578.209 1296.71 590.283C1298.35 602.435 1312.24 608.831 1324.5 611.002C1336.75 613.174 1350.47 613.872 1359.28 622.538C1370.52 633.592 1367.71 653.352 1357.14 665.023C1346.56 676.695 1330.61 681.985 1315.14 685.582C1294.66 690.347 1272.5 692.852 1253.04 684.943C1233.58 677.035 1218.44 655.746 1224.08 635.783C1226.46 627.351 1232.07 620.225 1237.49 613.287C1242.91 606.349 1248.4 599.094 1250.47 590.583C1252.19 583.489 1250.91 575.254 1246.13 569.933C1245.27 569.002 1244.72 567.823 1244.57 566.567C1244.43 565.31 1244.69 564.041 1245.32 562.94L1245.4 562.8Z" fill="#2F2E41"/>
<path d="M613.423 723.701C604.752 726.701 595.443 727.452 586.392 725.883C577.342 724.314 568.854 720.477 561.747 714.742C543.647 699.79 537.972 675.157 533.355 652.348C528.803 629.859 524.25 607.371 519.698 584.883L548.291 604.26C568.853 618.196 589.879 632.577 604.116 652.761C618.353 672.946 624.568 700.499 613.129 722.34" fill="#E6E6E6"/>
<path d="M610.978 805.381C613.872 784.633 616.848 763.62 614.818 742.65C613.015 724.026 607.243 705.837 595.49 690.922C589.252 683.021 581.661 676.25 573.059 670.916C570.816 669.523 568.751 673.022 570.984 674.409C585.869 683.667 597.381 697.339 603.861 713.452C611.019 731.37 612.169 750.903 610.935 769.938C610.189 781.449 608.608 792.885 607.015 804.306C606.89 804.822 606.968 805.366 607.235 805.828C607.501 806.29 607.936 806.635 608.451 806.794C608.976 806.933 609.536 806.863 610.009 806.598C610.483 806.334 610.831 805.896 610.978 805.381H610.978Z" fill="#F2F2F2"/>
<path d="M583.104 768.668C579.386 774.23 574.274 778.756 568.263 781.81C562.251 784.864 555.541 786.343 548.781 786.104C531.405 785.292 516.92 773.356 503.881 762.025L465.312 728.509L490.838 727.307C509.195 726.442 528.025 725.636 545.509 731.207C562.993 736.779 579.118 750.188 582.315 768" fill="#E6E6E6"/>
<path d="M619.157 817.308C605.228 793.05 589.071 766.089 560.202 757.473C552.175 755.085 543.758 754.229 535.405 754.953C532.772 755.176 533.429 759.17 536.057 758.947C550.059 757.803 564.035 761.442 575.63 769.252C586.788 776.727 595.476 787.119 602.829 798.14C607.333 804.891 611.368 811.928 615.403 818.955C616.692 821.201 620.462 819.58 619.157 817.308V817.308Z" fill="#F2F2F2"/>
<path d="M641.476 842.841C641.006 837.489 639.054 832.366 635.831 828.03C632.608 823.694 628.238 820.312 623.197 818.252V804.228H599.298V818.694C594.506 820.855 590.381 824.229 587.345 828.471C584.308 832.713 582.469 837.671 582.015 842.841L576.395 907.134H647.095L641.476 842.841Z" fill="#F2F2F2"/>
</g>
<defs>
<clipPath id="clip0">
<rect width="948" height="674" fill="white" transform="translate(464 241)"/>
</clipPath>
</defs>
</svg>
