<svg width="1440" height="1024" viewBox="0 0 1440 1024" fill="none" xmlns="http://www.w3.org/2000/svg">
<rect width="1440" height="1024" fill="white"/>
<path d="M946.288 1024C1175.09 1024 1360.58 1017.6 1360.58 1009.7C1360.58 1001.81 1175.09 995.406 946.288 995.406C717.483 995.406 532 1001.81 532 1009.7C532 1017.6 717.483 1024 946.288 1024Z" fill="#E6E6E6"/>
<path d="M940.068 531.41C968.239 531.41 991.076 507.552 991.076 478.122C991.076 448.692 968.239 424.834 940.068 424.834C911.897 424.834 889.059 448.692 889.059 478.122C889.059 507.552 911.897 531.41 940.068 531.41Z" fill="#6C63FF"/>
<path d="M926.576 601.334L903.494 582.88L820.861 739.237C818.266 739.729 815.867 741.009 813.963 742.916C812.06 744.824 810.735 747.274 810.155 749.962C809.575 752.65 809.765 755.457 810.702 758.033C811.639 760.609 813.28 762.84 815.422 764.448C817.564 766.056 820.112 766.97 822.748 767.076C825.384 767.182 827.991 766.475 830.245 765.044C832.498 763.612 834.299 761.519 835.422 759.026C836.545 756.533 836.941 753.749 836.561 751.022L926.576 601.334Z" fill="#FFB8B8"/>
<path d="M1137.26 690.078C1136.32 687.225 1134.52 684.766 1132.13 683.064C1129.74 681.363 1126.9 680.509 1124.01 680.631L990.871 571.525L970.901 593.587L1111.16 695.716C1111.3 697.706 1111.85 699.642 1112.76 701.394C1113.68 703.146 1114.94 704.674 1116.47 705.876C1117.99 707.077 1119.75 707.926 1121.61 708.363C1123.48 708.801 1125.41 708.818 1127.28 708.414C1129.15 708.01 1130.92 707.194 1132.46 706.02C1134.01 704.845 1135.3 703.341 1136.24 701.605C1137.18 699.87 1137.76 697.944 1137.94 695.957C1138.12 693.969 1137.88 691.965 1137.26 690.078V690.078Z" fill="#FFB8B8"/>
<path d="M982.741 994.387H998.426L1005.89 931.184H982.741V994.387Z" fill="#FFB8B8"/>
<path d="M1028.68 1009.6H979.38V989.705H1009.63C1014.68 989.705 1019.53 991.801 1023.1 995.533C1026.67 999.264 1028.68 1004.33 1028.68 1009.6V1009.6Z" fill="#2F2E41"/>
<path d="M858.456 979.758L872.866 986.228L903.613 931.238L882.344 921.689L858.456 979.758Z" fill="#FFB8B8"/>
<path d="M894.907 1012.68L849.617 992.35L857.137 974.07L884.929 986.547C889.57 988.631 893.229 992.555 895.1 997.457C896.971 1002.36 896.902 1007.84 894.907 1012.68V1012.68V1012.68Z" fill="#2F2E41"/>
<path d="M907.346 691.338L832.731 936.898L930.663 947.86L940.068 804.349L952.814 947.86L1032.09 938.116C1032.09 938.116 1017.77 710.825 991.705 696.21C965.638 681.595 907.346 691.338 907.346 691.338Z" fill="#2F2E41"/>
<path d="M947.802 544.256C965.831 544.256 980.446 528.987 980.446 510.153C980.446 491.319 965.831 476.05 947.802 476.05C929.774 476.05 915.158 491.319 915.158 510.153C915.158 528.987 929.774 544.256 947.802 544.256Z" fill="#FFB8B8"/>
<path d="M946.757 702.346C924.09 702.346 902.276 701.296 901.152 699.261C901.056 699.09 901.02 698.89 901.049 698.694C901.078 698.499 901.171 698.319 901.312 698.187C902.871 695.788 899.21 656.795 891.5 593.903C890.626 586.538 892.186 579.082 895.921 572.769C899.656 566.455 905.342 561.664 912.038 559.186L912.182 559.152L980.501 552.104L981.267 552.329C988.025 554.292 993.943 558.598 998.048 564.54C1002.15 570.482 1004.2 577.706 1003.86 585.025C1002.1 625.144 999.139 693.096 999.139 697.428C999.139 698.607 997.569 699.197 996.201 699.58C989.549 701.442 967.786 702.346 946.757 702.346Z" fill="#2F2E41"/>
<path d="M670.906 418.856L594.729 518.306L689.925 597.888L766.102 498.438L670.906 418.856Z" fill="#F2F2F2"/>
<path d="M689.264 620.217C683.912 619.364 678.923 616.873 674.926 613.059C670.93 609.244 668.106 604.277 666.812 598.786C665.517 593.295 665.811 587.526 667.655 582.209C669.499 576.892 672.811 572.265 677.172 568.915C681.533 565.564 686.747 563.64 692.155 563.385C697.563 563.13 702.922 564.556 707.554 567.483C712.186 570.41 715.883 574.706 718.178 579.828C720.472 584.95 721.262 590.668 720.446 596.259C719.904 599.971 718.668 603.535 716.808 606.748C714.948 609.961 712.5 612.76 709.604 614.984C706.709 617.209 703.422 618.816 699.932 619.714C696.442 620.612 692.817 620.782 689.264 620.217V620.217ZM697.138 566.252C692.273 565.478 687.297 566.227 682.84 568.407C678.383 570.586 674.645 574.097 672.098 578.497C669.551 582.896 668.31 587.985 668.531 593.121C668.753 598.257 670.428 603.209 673.343 607.35C676.259 611.492 680.285 614.638 684.912 616.389C689.539 618.14 694.559 618.419 699.337 617.19C704.116 615.961 708.438 613.279 711.758 609.483C715.077 605.688 717.245 600.949 717.986 595.867V595.867C718.973 589.053 717.332 582.108 713.424 576.556C709.515 571.004 703.658 567.298 697.138 566.252V566.252Z" fill="#3F3D56"/>
<path d="M631.003 942.62C621.66 975.225 636.161 1008.56 636.161 1008.56C636.161 1008.56 665.809 989.032 675.153 956.427C684.496 923.822 669.995 890.487 669.995 890.487C669.995 890.487 640.347 910.015 631.003 942.62Z" fill="#E6E6E6"/>
<path d="M645.189 943.502C653.053 976.53 637.066 1009.12 637.066 1009.12C637.066 1009.12 608.33 988.151 600.467 955.123C592.603 922.094 608.59 889.509 608.59 889.509C608.59 889.509 637.326 910.474 645.189 943.502Z" fill="#E6E6E6"/>
<path d="M901.896 487.565C919.255 497.44 938.795 502.372 958.555 501.867C966.123 501.662 974.462 500.224 979.256 494.101C984.664 487.193 983.311 476.399 978.094 469.332C972.877 462.265 964.715 458.281 956.573 455.579C948.869 453.023 940.615 451.377 932.715 453.164C928.546 454.107 924.62 455.977 921.205 458.646C917.789 461.316 914.964 464.723 912.922 468.635C910.879 472.547 909.667 476.873 909.367 481.318C909.068 485.763 909.688 490.224 911.187 494.396" fill="#6C63FF"/>
<path d="M903.989 470.324C919.792 470.324 932.603 456.94 932.603 440.431C932.603 423.921 919.792 410.537 903.989 410.537C888.185 410.537 875.374 423.921 875.374 440.431C875.374 456.94 888.185 470.324 903.989 470.324Z" fill="#6C63FF"/>
<path d="M1421.06 443.745L1308.73 375.353L1323.14 349.526C1323.55 348.789 1323.82 347.974 1323.93 347.129C1324.04 346.283 1323.99 345.423 1323.78 344.598C1323.58 343.773 1323.21 342.998 1322.72 342.319C1322.22 341.64 1321.61 341.069 1320.9 340.64C1320.19 340.21 1319.41 339.929 1318.61 339.815C1317.8 339.7 1316.97 339.753 1316.18 339.97C1315.39 340.187 1314.65 340.565 1314 341.082C1313.35 341.599 1312.81 342.244 1312.39 342.982L1297.98 368.808L1185.66 300.416C1183.38 299.028 1180.67 298.642 1178.11 299.345C1175.56 300.048 1173.38 301.781 1172.05 304.164L1084.34 461.37C1083.02 463.753 1082.65 466.589 1083.32 469.256C1083.99 471.922 1085.65 474.201 1087.93 475.589L1200.26 543.981L1101.9 720.277C1101.49 721.015 1101.22 721.829 1101.11 722.675C1101 723.521 1101.05 724.381 1101.26 725.207C1101.47 726.032 1101.83 726.807 1102.32 727.486C1102.82 728.165 1103.43 728.736 1104.14 729.166C1104.85 729.596 1105.63 729.876 1106.44 729.991C1107.25 730.106 1108.07 730.053 1108.86 729.835C1109.65 729.617 1110.39 729.239 1111.04 728.722C1111.69 728.205 1112.24 727.559 1112.65 726.822L1211 550.526L1323.33 618.918C1324.46 619.605 1325.7 620.054 1327 620.238C1328.3 620.422 1329.61 620.337 1330.88 619.989C1332.14 619.641 1333.33 619.036 1334.37 618.21C1335.41 617.383 1336.28 616.35 1336.94 615.17L1424.64 457.964C1425.3 456.784 1425.73 455.481 1425.91 454.128C1426.08 452.775 1426 451.399 1425.67 450.078C1425.34 448.758 1424.76 447.519 1423.97 446.433C1423.18 445.346 1422.19 444.433 1421.06 443.745V443.745Z" fill="#3F3D56"/>
<path opacity="0.1" d="M1265.27 538.436C1268.73 532.235 1253.25 516.073 1230.69 502.338C1208.13 488.602 1187.04 482.495 1183.58 488.697C1180.12 494.898 1195.6 511.06 1218.16 524.796C1240.72 538.531 1261.81 544.638 1265.27 538.436Z" fill="black"/>
<path d="M1254.49 522.053C1287.48 522.053 1314.21 494.122 1314.21 459.667C1314.21 425.212 1287.48 397.281 1254.49 397.281C1221.51 397.281 1194.78 425.212 1194.78 459.667C1194.78 494.122 1221.51 522.053 1254.49 522.053Z" fill="#6C63FF"/>
<path d="M1280.48 490.53C1277.02 496.732 1252.61 500.643 1234.8 489.799C1216.99 478.956 1212.52 457.464 1215.98 451.262C1219.44 445.06 1229.52 456.498 1247.33 467.341C1265.14 478.185 1283.94 484.329 1280.48 490.53Z" fill="#F2F2F2"/>
<path d="M1241.5 439.176C1248.37 439.176 1253.94 433.358 1253.94 426.179C1253.94 419.001 1248.37 413.182 1241.5 413.182C1234.63 413.182 1229.06 419.001 1229.06 426.179C1229.06 433.358 1234.63 439.176 1241.5 439.176Z" fill="#F2F2F2"/>
<path d="M1286.64 466.664C1293.51 466.664 1299.08 460.845 1299.08 453.667C1299.08 446.489 1293.51 440.67 1286.64 440.67C1279.77 440.67 1274.2 446.489 1274.2 453.667C1274.2 460.845 1279.77 466.664 1286.64 466.664Z" fill="#F2F2F2"/>
</svg>
